PathFileType	4	(X/Y/Z)	s03c0203.trc
DataRate	CameraRate	NumFrames	NumMarkers	Units	OrigDataRate	OrigDataStartFrame	OrigNumFrames
200	200	4	50	mm	200	1750	2000
Frame#	Time	racr			lacr			c7			jug			rlel			rdr			llel			ldr			s2			lic			ric			lasi			rasi			rpsi			lpsi			rgt			lgt			rth1			rth2			rth3			rth4			rlfc			rmfc			rsh1			rsh2			rsh3			rsh4			rlmal			rcal			rtoe			rmt5			rmt1			lth1			lth2			lth4			lth3			llfc			lmfc			lsh1			lsh2			lsh3			lsh4			llmal			lcal			ltoe			lmt1			lmt5			SBIKE			LBIKE			RBIKE			
		X1	Y1	Z1	X2	Y2	Z2	X3	Y3	Z3	X4	Y4	Z4	X5	Y5	Z5	X6	Y6	Z6	X7	Y7	Z7	X8	Y8	Z8	X9	Y9	Z9	X10	Y10	Z10	X11	Y11	Z11	X12	Y12	Z12	X13	Y13	Z13	X14	Y14	Z14	X15	Y15	Z15	X16	Y16	Z16	X17	Y17	Z17	X18	Y18	Z18	X19	Y19	Z19	X20	Y20	Z20	X21	Y21	Z21	X22	Y22	Z22	X23	Y23	Z23	X24	Y24	Z24	X25	Y25	Z25	X26	Y26	Z26	X27	Y27	Z27	X28	Y28	Z28	X29	Y29	Z29	X30	Y30	Z30	X31	Y31	Z31	X32	Y32	Z32	X33	Y33	Z33	X34	Y34	Z34	X35	Y35	Z35	X36	Y36	Z36	X37	Y37	Z37	X38	Y38	Z38	X39	Y39	Z39	X40	Y40	Z40	X41	Y41	Z41	X42	Y42	Z42	X43	Y43	Z43	X44	Y44	Z44	X45	Y45	Z45	X46	Y46	Z46	X47	Y47	Z47	X48	Y48	Z48	X49	Y49	Z49	X50	Y50	Z50	
1750	8.7500	464.453754	1414.168885	-112.375022	425.361564	1422.075259	-428.920006	377.527190	1499.188809	-262.906264	393.452619	1323.722777	-259.224165	504.420662	1173.647103	36.906114	714.387304	983.689424	-24.386309	484.786344	1170.463247	-537.041916	712.937434	980.015013	-464.142490	-124.205431	1187.229218	-205.600082	14.527377	1237.805556	-407.356828	54.532035	1229.545900	-40.021909	53.520976	1170.920861	-363.819105	87.672626	1164.379931	-89.388886	-98.913819	1239.018392	-160.794824	-103.701398	1241.575697	-243.652903	0.542397	1103.350123	-26.958653	-12.816225	1150.926336	-420.893426	79.944943	957.900415	-13.415453	149.492360	902.102580	-12.704258	183.480824	823.693961	-24.968163	178.826012	923.812807	-20.681000	240.674779	712.706045	-60.174653	247.428198	699.802798	-177.917142	211.714889	548.828386	-32.850855	222.144901	461.088158	-48.064780	187.504640	379.815815	-49.717363	250.931681	459.731871	-73.576600	158.367881	250.353546	-73.701097	95.516105	213.427284	-107.817457	403.217082	171.647125	-118.266192	284.500407	167.196315	-44.885181	309.530615	184.344019	-158.078566	110.190564	1085.858605	-463.469164	194.971126	1078.865691	-480.783184	209.702924	1111.478212	-470.313661	266.801279	1027.107412	-494.323655	397.698650	978.597908	-495.802093	416.469494	966.362388	-364.014050	292.839281	842.767426	-491.941808	262.708358	768.139488	-462.627563	192.672814	713.425040	-446.812998	290.840189	753.474771	-441.671584	112.930313	623.647720	-412.016624	38.862078	604.493399	-359.521848	320.758562	479.613196	-364.051181	232.057329	511.752060	-320.388961	201.047011	503.548854	-433.880799	-221.428764	943.137554	-235.552914	-14.517274	80.583544	-437.336836	-14.517540	80.415533	-37.031924	
1751	8.7550	465.378708	1414.947475	-115.130176	423.762655	1422.145980	-430.956161	377.059955	1499.532188	-264.792748	393.386824	1324.104583	-261.066938	505.530598	1174.729575	35.871512	714.822600	983.767170	-24.793119	483.801095	1169.973783	-536.943566	713.152220	980.159145	-464.403859	-124.159105	1187.631725	-204.379247	13.861289	1238.444037	-406.274622	55.619970	1229.251665	-39.606891	53.058341	1171.472398	-362.117382	88.704697	1164.436163	-88.864477	-98.100275	1238.957465	-159.565331	-103.807285	1242.040817	-242.261775	0.519515	1103.135300	-26.145548	-12.743066	1152.418448	-420.061415	79.246968	957.390213	-12.528306	148.463015	901.280668	-11.614940	182.052175	822.607452	-23.872297	178.013277	922.690382	-19.658613	238.443217	711.127799	-59.153716	245.743910	698.520735	-176.945560	206.801210	547.671176	-32.420165	215.684599	459.924150	-48.081219	180.225805	379.130636	-49.791208	245.177126	458.156214	-72.938146	149.440727	250.181168	-74.275713	85.951692	214.077833	-108.364110	393.424614	167.448712	-117.902241	274.347407	164.949613	-45.038750	300.088895	181.633383	-158.143309	110.639550	1087.544744	-462.177871	195.502544	1081.162592	-479.299262	209.885368	1114.011866	-469.430110	267.877201	1029.908927	-492.188366	399.240178	983.848044	-494.234011	418.036242	971.808991	-362.189483	296.615912	846.268317	-491.072127	267.457321	771.190805	-461.935764	198.216955	715.314768	-446.561239	295.684593	756.939294	-440.824197	119.822879	623.990935	-412.287498	45.752020	603.133596	-359.810263	330.925885	485.511811	-365.228638	241.453119	515.193319	-320.438865	210.444155	506.233545	-434.122609	-221.387935	943.147266	-235.544179	-14.516076	80.634188	-437.339783	-14.492342	80.460010	-37.036118	
1752	8.7600	466.063444	1415.392365	-117.553035	422.234770	1422.171972	-432.874288	376.585147	1499.912091	-266.535633	392.948819	1324.487361	-262.863667	506.667121	1175.848887	34.849219	715.187067	983.837633	-25.366137	483.081395	1169.621462	-537.009308	713.309656	980.281854	-464.626241	-124.153228	1188.074220	-203.289522	13.287209	1239.045596	-405.371128	56.643176	1229.066623	-39.121681	52.582048	1172.039242	-360.643208	89.595370	1164.530255	-88.337712	-97.254308	1238.930567	-158.479884	-103.958734	1242.587317	-240.969362	0.550953	1103.074167	-25.410022	-12.757600	1153.826955	-419.383628	78.797776	957.166467	-11.576497	147.915664	900.645646	-10.689135	181.135388	821.848436	-22.794707	177.452836	922.054311	-18.765609	236.902555	709.980697	-58.203859	244.753178	697.525584	-176.100448	202.293229	547.012544	-32.030757	209.708188	459.305775	-47.870534	172.998942	379.058641	-49.951378	239.415031	456.996823	-72.462547	140.392459	250.525756	-75.080504	77.020392	215.397443	-109.659694	383.304622	164.082345	-117.335843	263.909465	163.383289	-45.228958	290.542662	179.476384	-158.256423	111.106731	1089.116703	-461.141727	196.020741	1083.333797	-477.810709	209.989658	1116.479567	-468.301655	268.844057	1032.655643	-489.615362	400.613336	988.711060	-492.522289	419.389145	976.690325	-360.289925	300.253846	849.271575	-490.180925	272.193519	773.688838	-461.166097	203.761947	716.674215	-446.271552	300.533184	759.934537	-439.927505	126.806090	623.753427	-412.360255	52.978311	601.181615	-360.061636	341.012670	490.327319	-364.941958	250.841074	517.900609	-321.216282	219.972027	508.203995	-434.326303	-221.363243	943.163326	-235.543175	-14.505341	80.641610	-437.356605	-14.510577	80.469711	-37.037660	
1753	8.7650	467.190887	1416.013379	-119.371090	420.706201	1422.248044	-434.804030	376.102215	1500.224900	-268.210479	392.985181	1324.854438	-264.327156	507.743183	1176.874874	33.881131	715.499779	983.883688	-26.156640	482.327026	1169.255017	-537.101528	713.421225	980.389130	-464.870805	-124.236403	1188.534683	-202.337049	12.601316	1239.912884	-404.516740	57.454998	1229.036672	-38.612927	52.094272	1172.615266	-359.384238	90.267676	1164.684567	-87.821472	-96.761536	1239.051554	-157.449343	-104.037991	1243.226644	-239.732389	0.542571	1103.036578	-24.691992	-12.860692	1155.094254	-418.749144	78.642157	956.968033	-10.946435	147.726843	900.294661	-9.914108	180.852825	821.518457	-21.901433	177.297548	921.722039	-18.071547	236.070949	709.179500	-57.220635	244.210607	696.891595	-175.190948	198.243004	546.865566	-31.618444	204.140275	458.964158	-47.672175	165.960320	379.538832	-50.119361	233.995662	456.270089	-72.086954	131.402626	251.693597	-75.950060	67.681912	217.492132	-110.983354	373.151680	161.179592	-116.486056	253.227830	162.436647	-45.342140	280.881429	178.064839	-158.299335	111.496144	1090.580579	-459.956132	196.489685	1085.386280	-476.440173	210.195572	1118.270996	-465.973501	269.845180	1035.424506	-487.814937	401.797598	993.245764	-490.748820	420.581136	980.962914	-358.341000	303.764780	851.836960	-489.173524	276.791782	775.738317	-460.311546	209.222278	717.741053	-445.709847	305.276580	762.457744	-439.084157	133.945284	622.991203	-412.416961	60.836255	598.578887	-360.179229	351.039300	494.551825	-364.986260	260.877759	520.830200	-320.714260	229.665955	509.530794	-434.448915	-221.222238	943.129695	-235.660116	-14.513800	80.698872	-437.303514	-14.534975	80.491885	-37.061530	
